<?xml version="1.0" encoding="utf-8"?><svg xmlns="http://www.w3.org/2000/svg" xmlns:xlink="http://www.w3.org/1999/xlink"><symbol fill="none" viewBox="0 0 35 35" id="Group_113" xmlns="http://www.w3.org/2000/svg"><g filter="url(#aa)"><path fill-rule="evenodd" clip-rule="evenodd" d="M17.5 35C27.165 35 35 27.165 35 17.5S27.165 0 17.5 0 0 7.835 0 17.5 7.835 35 17.5 35Z" fill="currentColor"/></g><path fill-rule="evenodd" clip-rule="evenodd" d="M24.535 11.23a1.412 1.412 0 0 0-1.996 0l-4.657 4.656-4.567-4.567a1.412 1.412 0 0 0-1.996 1.997l4.567 4.566-4.656 4.656a1.412 1.412 0 1 0 1.996 1.997l4.656-4.656 4.567 4.567a1.412 1.412 0 0 0 1.997-1.997l-4.567-4.567 4.656-4.656a1.412 1.412 0 0 0 0-1.996Z" fill="currentColor"/><defs><filter id="aa" x="-54.366" y="-54.366" width="143.731" height="143.731" filterUnits="userSpaceOnUse" color-interpolation-filters="sRGB"><feFlood flood-opacity="0" result="BackgroundImageFix"/><feGaussianBlur in="BackgroundImage" stdDeviation="27.183"/><feComposite in2="SourceAlpha" operator="in" result="effect1_backgroundBlur"/><feBlend in="SourceGraphic" in2="effect1_backgroundBlur" result="shape"/></filter></defs></symbol><symbol fill="none" stroke="currentColor" viewBox="0 0 14 14" id="qwe" xmlns="http://www.w3.org/2000/svg"><path d="m3 5 4 4 4-4" stroke-width="2" stroke-linecap="round"/></symbol></svg>