<?xml version="1.0" encoding="utf-8"?><svg xmlns="http://www.w3.org/2000/svg" xmlns:xlink="http://www.w3.org/1999/xlink"><symbol viewBox="0 0 122.23 81.2" id="Asset_3" xmlns="http://www.w3.org/2000/svg"><defs><style>.acls-2,.acls-3,.acls-4,.acls-5,.acls-7,.acls-8{fill-rule:evenodd}.acls-2{fill:#e58b3b}.acls-3{fill:#864c24}.acls-4{fill:#f6bed0}.acls-5{fill:#fff799}.acls-8{fill:#231916}</style></defs><g id="aLayer_2" data-name="Layer 2"><g id="aレイヤー_1" data-name="レイヤー 1"><path d="M122.21 37.34a8.45 8.45 0 0 0-2.49-5.22c-.12-.09-.51-.12-.71-.23s-.15-.19-.24-.24a6.1 6.1 0 0 0-1.78-.48 8 8 0 0 0-.35-2.84c-.06-.19-.07-.44-.12-.59a5.81 5.81 0 0 0-2.49-3s-.07-.21-.12-.23a5.61 5.61 0 0 0-1.18-.48 9.42 9.42 0 0 0-3.92 0c-.71.17-1.25.68-2 .83a6.8 6.8 0 0 0-3-3.44 10.69 10.69 0 0 0-1.54-.83 7.71 7.71 0 0 0-5.93.72 5.91 5.91 0 0 0-1.66 1.89 16.12 16.12 0 0 0-3.56-2.84A26.33 26.33 0 0 0 83.8 17a34.12 34.12 0 0 0-7.11-1.54 61.5 61.5 0 0 0-8.53-.12c-1.46.09-2.92.33-4.39.48-.76.07-1.49.13-2.25.23a38.76 38.76 0 0 1-4.62.48 22.59 22.59 0 0 1-2.73 0 12 12 0 0 1-3.08-1 8.86 8.86 0 0 1-2.73-1.42c1.16-.55 2.58-1.43 3.68-1.9a10.24 10.24 0 0 1 1.42-.47c.52-.16 1.57-.14 1.66-1a4.32 4.32 0 0 0-2 .35 49.25 49.25 0 0 0-5.34 2.49c-.77-.76-1.79-1.72-2.49-2.49-.24-.27-.44-.64-.71-1-.48-.55-1.1-1.1-1.66-1.66-1.68-1.68-3.28-3.35-5-5-.15-.15-.33-.21-.47-.36-.55-.45-1.12-1.07-1.65-1.53A9.31 9.31 0 0 0 34.38.48 4.77 4.77 0 0 0 33 0c-1.76 0-2.13 2.53-2.49 4-.68 2.8-.87 5.85-1.54 8.3a13.88 13.88 0 0 0-3.09.59 16.46 16.46 0 0 0-2.84.83c-1.76.73-3.43 1.57-5.1 2.37-2.24-1.61-4.16-3.51-6.52-4.86-.29-.17-.72-.34-1-.47s-.15-.19-.23-.24a9.05 9.05 0 0 0-2-.83 4.39 4.39 0 0 0-2.13-.36 21.34 21.34 0 0 0 .83 12.45 14.86 14.86 0 0 0 .47 4.39c.16.76.28 1.43.48 2.13a7 7 0 0 1 .47 1.9 4.37 4.37 0 0 0-3.44.23A6.24 6.24 0 0 0 3 33.66a11 11 0 0 0 .59 4.74 18.82 18.82 0 0 0-1.9 1.66c-.13.14-.21.35-.35.48C.83 41-.07 41.18 0 42a3.56 3.56 0 0 0 2-1.3c.29-.29.52-.57.83-.83s.63-.66.95-.59A12.33 12.33 0 0 1 4 44.33c-.17.84-.62 1.6-.71 2.37a9.36 9.36 0 0 0 .36 3.79 6.21 6.21 0 0 0 .35.6c.13.24.14.57.24.71a7.51 7.51 0 0 0 2.16 1.66c2.11 1.22 4.82 1.57 7.71 1.89.59.07 1.21.22 1.78.24 1.65.07 3.17-.05 4.74-.12 2.88-.12 5.87.05 8.41-.12a20.7 20.7 0 0 0 3.32-.23c.25-.08.38-.2.6-.12a1.84 1.84 0 0 1-.48 1.06c-.18.37-.11 1-.47 1.19a20.37 20.37 0 0 0-4.63-.35c-.36.31-.8.56-1.18.83s-.38.31-.59.47-.24 0-.36.12-.14.27-.24.35c-1 .84-2.26 1.73-3.2 2.49-.53.43-.92.87-1.42 1.31a25.56 25.56 0 0 0-2.25 2c-.16.17-.19.4-.36.59s-.43.29-.59.48 0 .24-.12.35-.28.14-.35.24c-.64.79-1.36 1.66-1.9 2.37-.08.1 0 .24-.12.36s-.28.14-.35.23c-.3.39-.53.79-.83 1.19a22.48 22.48 0 0 0-1.31 1.89 3.55 3.55 0 0 0-.83 2.14c1.79.33 3.35 1.28 5.1 1.89 1.51.53 3.41 1 4.74 1.31.26.06.59 0 .83.12.41.11.77.36 1.19.47.2.06.46.06.71.12 1.17.29 2.47.46 3.67.83.41.13.79.38 1.19.47s1 .11 1.54.24c1.12.28 2.54.71 3.44 1 0 .23 0 .51.35.47a8.9 8.9 0 0 0 2-2.13c.66-.76 1.41-1.43 2.13-2.13A52.73 52.73 0 0 0 42 72.66c.41-.5.84-.94 1.19-1.42s.53-.87.83-1.31c.58-.83 1.2-1.63 1.78-2.48s1-1.81 1.54-2.73a6.85 6.85 0 0 0 1.3-3 18.34 18.34 0 0 0-2-.83c-.32-.12-.65-.34-1-.47s-.84 0-1-.47a10 10 0 0 0 2.73-1.07c.1-.1.25-.14.35-.24a4.24 4.24 0 0 1 .95-.59c.87-.47 1.63-.78 2.49-1.18a19 19 0 0 0 3-1.9c.44-.31 1-.61 1.42-1A6.55 6.55 0 0 1 57 53a12.8 12.8 0 0 1 2.25-.23c.79-.07 1.58-.07 2.37-.12 1.61-.11 3.2-.4 4.5-.48 1.82-.1 3.69.09 5.57 0 5.2-.23 10.58-.12 14.94-.12 3.42 0 6.52.36 9.36-.23.51.36 1.54 1.05 2 1.42a4.2 4.2 0 0 0 1 .71c1.28.64 2.68 1.31 3.91 1.78.31.12.55.12.83.24a7.85 7.85 0 0 0 .83.35 13.39 13.39 0 0 0 3.67.12 4.09 4.09 0 0 0 1.78-.71 3.52 3.52 0 0 0 1.78-1.42 4.78 4.78 0 0 0 .71-3.08 5.88 5.88 0 0 0 5.21-3.32c-.08-.88.12-1.58 0-2.26s-.75-1.28-.83-2c.46.16.77-.14 1.19-.24a6.5 6.5 0 0 0 1.18-.23 5.84 5.84 0 0 0 1.55-1.43 5.41 5.41 0 0 0 1.42-3.2 7.75 7.75 0 0 0-.01-1.21Zm-12.57 1.3a23.91 23.91 0 0 0-3.55-1.07 21.31 21.31 0 0 1-1.07-2c-.69-.77-1.16-1.76-1.9-2.49.18-.39.71-.25 1.07-.36a5.24 5.24 0 0 0 1-.35c.14-.07.2-.19.35-.24a9.11 9.11 0 0 0 .83 1.78c.34.55.5.63 1.31 1.07a4 4 0 0 0 2.84.59 5.72 5.72 0 0 0 .24 3.32c-.4.11-.76-.13-1.12-.25Z" style="fill-rule:evenodd;fill:#fff"/><path class="acls-2" d="m9.26 31.73-.3-.7-.45-.61-.22-.72-.07-.75-.23-.71-.13-.73-.1-.74-.12-.73-.13-.72-.09-.71-.2-.68.01-.72-.34-.65-.05-.72-.16-.68-.15-.7.02-.72-.21-.68-.15-.7.08-.72-.01-.7-.2-.7.22-.7-.17-.71.14-.7-.02-.71-.04-.7-.06-.7.04-.71-.16-.69-.23-.66.72.1h.67l.65.15h.68l.63.24.6.33.7.17.52.47.65.27.55.43.54.43.61.36.59.36.58.39.59.38.46.57.6.36.58.4.56.43.43.55-.33.67-.3.68-.33.66-.37.66-.19.73-.16.73-.22.74-.3.71-.32.7-.24.74-.34.69-.41.66-.2.71-.33.63-.4.6-.46.57-.32.66-.36.63-.46.57-.37.62-.36.64-.38.63-.52.52-.63.17-.13.06z"/><path class="acls-3" d="m17.07 22.27.58-.47.57-.48.47-.58.52-.53.48-.57.34-.67.47-.58.38-.63.26-.71.45-.61.24-.71.18-.73.22-.63-.47.34-.65.23-.59.33-.56.4-.65.19-.66.16-.67.15-.69-.11-.54-.49-.54-.45-.52-.49-.55-.46-.58-.42-.57-.43-.61-.03-.26.65-.2.69.05.71.08.71.13.7v.72l.13.7.19.69.09.73.21.71.07.74.23.7.3.68.23.7.08.79.7-.32.55-.46.64-.32.47-.54zM45.77 12.56l-.42-.59-.61-.43-.42-.59-.48-.53-.45-.57-.61-.4-.48-.54-.45-.56-.46-.56-.57-.45-.54-.46-.39-.62-.62-.39-.49-.52-.42-.6-.57-.44-.5-.5-.54-.48-.35-.52-.27.67v.7l-.12.68.02.7-.05.69.05.69-.16.69-.01.69-.06.69.11.7-.21.68v.74l.13.74.21.7.27.67.33.65.49.54.71.21.68.24.72.08.73-.04.74.1.7-.29.74-.01.71-.18.7-.22.72-.17.69-.25.72-.16.7-.22-.41-.41-.21-.55z"/><path class="acls-4" d="m22.23 31.03.47.51.06.65-.14.7-.5.53-.65.32-.6.43-.71.16-.72.12-.71-.12-.72-.15-.24-.69-.05-.63.25-.63.53-.43.55-.37.61-.29.59-.37.7-.04.69-.08.59.38zM37.86 23.13l.56.45.49.5-.05.7-.48.51-.53.45-.54.45-.69.2-.63.32-.69.14-.69.17-.72.01-.57-.4-.26-.58.23-.67.45-.55.51-.57.69-.33.64-.43.73-.25.75-.22.8.1z"/><path class="acls-2" d="m104.46 28.33.75.13.73.13.72.24.54.55.48.57.46.59.39.65.64.42.52.53.65.37.74.13.71.2.68.35.75.05.61.42.53.49.22.71.05.74.01.74.06.7-.14.71.26.68.13.68.13.69.35.62.27.65.46.56.63.34.66.23.64.19.67-.03.69-.06.52-.46.47-.47.46-.51.3-.62.18-.66.15-.66.15-.67-.05-.75-.06-.75-.1-.75-.35-.68-.38-.65-.36-.65-.42-.64-.53-.53-.56-.51-.6-.46-.64-.25-.36-.57-.2-.61-.2-.63-.1-.64-.08-.78-.35-.69-.5-.59-.41-.64-.56-.52-.52-.53-.67-.33-.62-.43-.7-.27-.75-.07-.72-.21-.75.06-.74-.09-.73.17-.71.19-.72.3-.73.22-.28-.59-.48-.54-.4-.59-.51-.5-.6-.39-.53-.48-.71-.2-.64-.29-.62-.36-.69-.2-.75-.03-.74.04-.74.09-.73.18-.65.36-.68.3-.62.41-.64.41-.45.61-.58.47.44.58.42.63.48.58.5.57.42.64.5.57.6.48.72.27.63.45h.78l.73.24.76.05.75-.19.75-.1.76.03.75-.14zM79.78 16.08l-.71-.13-.71-.17-.73.09-.7-.24-.73.06-.71-.1-.72-.07-.7-.17-.73.14-.71-.14-.72.09-.72-.14-.72.06-.75-.2-.76-.01-.75.08-.75.13-.76-.02-.75.1-.75.08-.75.08-.73.18-.7.31-.72.13h-.75l-.66.35-.39.59-.19.66-.18.65-.27.65-.18.69-.22.67-.36.61-.1.71-.17.68-.2.68-.01.71.03.71-.23.7.05.71.07.71.08.71.11.7.2.68.11.71.48.56.27.66.48.55.49.56.62.39.67.32.73.07.73.01.74-.04.7-.25.64-.4.64-.35.6-.43.65-.34.54-.52.57-.41.6-.38.45-.55.53-.47.56-.42.6-.4.43-.57.58-.41.49-.52.64-.33.56-.44.6-.37.66-.26.64-.28.65-.28.64-.31.71-.07.71-.06.7.01.71.1.67.22.65.27.66.26.72.18.72.17.74.1.74.03.75.2.75-.05.73-.22.77.11.66-.22.69-.03.68-.09.68-.07.68-.1.67-.2.62-.31.66-.21.62-.41-.36-.69-.58-.44-.54-.45-.6-.38-.55-.45-.58-.4-.57-.4-.61-.34-.54-.47-.57-.42-.65-.28-.67-.33-.63-.42-.67-.34-.76-.13-.66-.37-.75-.12-.73-.19-.69-.31-.77-.06-.71-.19-.94-.24z"/><path class="acls-5" d="m38.43 28.27.1.73.11.67-.12.67-.71.16-.73-.13-.29-.76.16-.75.64-.45.84-.14zM32.43 28.84l.07.82-.11.85-.29.01-.63.02-.59-.35-.14-.69.39-.61.68-.16.62.11zM23.38 34.46l.26.74-.06.78-.49.56-.71.28-.42-.57-.05-.69.3-.61.54-.33.63-.16zM32.93 37.01l-.83-.33-.45.3.05-.6.27-.56-.05-.65.63-.24.64.07.55.41.01.69-.32.58-.5.33z"/><path class="acls-3" d="m69.3 23.83.26-.61.06-.67-.11-.75-.47-.58-.57-.46-.7-.29-.73-.25-.73-.21-.6-.49-.51-.48-.56-.44-.42-.57-.52-.49-.61-.38-.53-.48-.67-.22-.71-.1-.79.11-.75.28-.77.18-.8-.07-.72-.06-.71-.04-.72-.06-.73.12-.72-.09-.69-.29-.73.01-.69-.2.45.49.57.44.46.52.4.52.28.58.29.58.39.52.35.62.35.62.37.6.24.68.4.59.46.54.37.6.46.55.58.44.68.24.68.21.68.22.71.1.71.07.7.26.72.03h.72l.72-.08.69-.27.74.03.67-.29.69-.22.55-.49.5-.51.36-.61z"/><path class="acls-2" d="m110.41 47.07-.11-.7-.3-.62-.25-.65-.39-.58-.25-.65-.27-.64-.43-.55-.3-.63-.41-.55-.31-.63-.3-.62-.3-.62-.43-.67-.31-.73-.49-.63-.49-.62-.2-.71-.33-.64-.51-.53-.34-.63-.39-.59-.49-.53-.36-.57-.36-.57-.42-.53-.39-.55-.48-.49-.51-.44-.53-.56.07.89-.11.8-.08.81-.44.7-.28.69-.38.64-.27.7-.34.67-.4.64-.22.73-.17.73.03.76.29.68.24.71.48.56.61.41.63.37.67.3.68.29.68.29.74.1.7.25.65.35.68.27.59.41.64.38.42.6.58.45.37.65.55.49.51.47.5.48.61.35.66.18.6-.18.16-.19z"/><path class="acls-3" d="m102.39 44.63.65-.33.56-.44.54-.46.53-.49.41-.59.4-.6.29-.67.5-.53.5-.5.53-.55-.38-.67-.37-.61-.35-.61-.34-.63-.47-.54-.64.39-.76.08-.68.33-.76-.06-.73.07h-.73l-.74-.01-.73-.13-.73-.13-.69-.32-.75.02-.73-.21-.74.17-.55.48-.36.63-.02.75.21.71.1.74.35.67.25.67.4.59.37.61.41.59.58.45.53.48.69.25.63.34.69.2h.72l.72.04.69-.18z"/><path class="acls-2" d="M77.28 51.67h-.69l-.68-.02-.69.13-.69-.06-.69.14-.69.03-.69.03-.7-.06-.67.21-.69-.02-.72-.06-.71.1-.72-.09-.71.03-.71.14-.72-.01h-.73l-.7.2h-.73l-.72-.06-.67.11-.68.05-.65.26-.69-.02-.68.07-.68.02-.66.23-.68.05-.68-.15-.68.19-.69-.01-.67.14-.69.02-.69.02-.69-.05-.65-.16-.67-.17-.33-.59.29-.7.13-.76.09-.9-.39-.81-.19-.74-.2-.76-.18-.75-.09-.76.16-.69.25-.66.41-.57.36-.6.41-.57.42-.56.35-.63.53-.48.5-.5.55-.44.65-.37.63-.41.69-.28.71-.27.69-.35.77.02.75-.05.76.08.72.26.58.48.36.65.17.72.26.68.58.48.47.56.64.35.54.51.63.38.7.21.71.18.72.02.72.08.74-.01.68-.32.71-.12.73-.05.73-.01.73-.08.74.05.71.19.63.39.66.33.55.5.48.55.46.54.55.47.34.63.39.6.43.58.35.62.29.66.42.59.15.71.22.67-.57-.27-.7-.01-.69-.03-.7.13z"/><path class="acls-3" d="m48.5 47.76-.58.45-.37.63-.32.65-.14.73.05.73.28.7.2.71.14.73.2.72.27.69.33.67.27.7.4.63.54.47.52-.41.7-.24.59-.42.64-.35.59-.43.64-.35.6-.4.63-.35.68-.27.62-.39.59-.43.58-.46.69-.28.6-.41.59-.42.53-.51.64-.36.61-.41.45-.58.21-.67-.62-.46-.75-.16-.76.06-.74-.01-.76-.13h-.75l-.75.11-.71-.12-.7-.18-.69-.2-.67-.27-.7-.16-.71-.1-.7-.12-.71.05-.81-.07-.76.26-.68.43z"/><path style="fill:#dff2fc;fill-rule:evenodd" d="m26.64 58.02-.09.3-.36.1-.41.41-.26.25-.33.11-.4.6-.56.42-.54.44-.59.37-.81.62-.49.38-.34.53-.45.43-.6.33-.09.28-.43.02-.47.54-.51.48-.43.55-.46.47-.39.52-.32.59-.42.5-.5.57-.5.57-.23.35-.52.52-.4.62-.52.51-.14.34-.29.28-.24.49-.4.67-.15.17-.49.63-.32.75.69.17.61.32.59.35.66.19.61.32.67.19.65.21.65.22.67.29.73.07.65.36.74.03.66.32.74.04.71.16.66.32.71.11.7.28.77.18.78.02.7.16.7.14.66.28.64.34.75.02.71.19.72.12.68.29.71.19.73.14.71.17.72.27.59-.65.48-.71.45-.3.32-.46.54-.44.32-.6.54-.42.61-.45.41-.58.56-.44.38-.61.48-.51.44-.56.46-.54.47-.52.47-.53.31-.65.44-.56.45-.54.44-.56.41-.57.34-.63.48-.53.36-.61.45-.55.32-.63.29-.68.52-.55.35-.65.27-.69.34-.65.36-.56-.53-.38-.67-.25-.7-.19-.62-.38-.66-.28-.68-.19-.67-.25-.72-.1-.7-.14-.64-.37-.73-.02-.67-.27-.7-.15-.72-.06-.69-.13-.65-.26-.68-.18-.67-.17-.69-.08-.67-.22-.71-.02-.66-.22-.7-.1-.71.03-.69-.06-.69-.19-.7.01-.69-.04-.7-.09-.71-.03-.86.54z"/><path class="acls-5" d="m25.39 68.86.6-.02.53-.36.62-.16.82-.04.79.23.68.41.67.46.71-.12.65-.23.69-.11.67.15.61.16.43.5.5.4.35.53.34.58.15.66.11.66.13.67-.09.67-.12.66-.32.62-.36.6-.57.42-.49.5-.64.32-.97-.05-.2-.38-.77-.09-.61-.48-.39-.71-.15-.76-.28-.7-.2-.71-.45.15-.67.32-.63.41-.73.19-.66.11-.65.09-.65.07-.66.13-.49-.23-.6-.33-.47-.51-.18-.7-.76.11-.7-.08-.72-.2-.69-.03-.22-.37-.3-.15-.39-.43-.1-.55-.04-.69-.1-.67.18-.65.23-.64.45-.53.36-.57.31-.61.49-.47.44-.55.67-.2.58-.39h.69l.68-.01.7-.02.44.47.43.43.33.48.08.77.07.8-.16.77z"/><path class="acls-3" d="m20.05 45.32.75-.25-.72-.11-.72-.05-.69-.26-.75.02-.71-.21-.59-.46-.65-.31-.63-.38-.37-.69-.57-.5-.44-.63-.52-.55-.57-.52-.45-.61-.51-.68-.19.79v.74l-.21.69-.11.72.03.72.05.72-.02.72.07.73.33.64.4.59.41.59.55.49.73.13.69.22.73.04.73-.05.69-.28.72-.13.61-.52.67-.43.63-.47.63-.46zM103.76 26.29l-.66-.03-.68-.33-.56-.51-.65-.39-.66-.24-.79-.14-.76.29-.73-.31-.04-.71.29-.67.71-.28.7-.29h.77l.76-.11.75.12.56.37.56.4.41.54.39.57.23.65v.72l-.6.35zM114.65 29.86l-.59.21-.61.13-.51-.35-.58-.37-.27-.63-.31-.58-.39-.53-.7-.21-.7.02-.54-.27-.1-.62.41-.51.57-.3.64-.06.67-.07.69.08.66.24.64.28.61.37.4.6.47.52.15.71-.26.69-.35.65zM118.07 36.62l-.45-.46-.47-.4-.37-.49-.24-.67.22-.59.65-.14.69.13.68.22.63.38.32.74.5.61.24.75-.02.78v.76l-.47.58-.54.41-.68.06-.4-.58-.2-.68-.08-.7-.01-.71z"/><path class="acls-7" d="M47.77 13.63a49.25 49.25 0 0 1 5.34-2.49 4.32 4.32 0 0 1 2-.35c-.09.81-1.14.79-1.66 1a10.24 10.24 0 0 0-1.42.47c-1.1.47-2.52 1.35-3.68 1.9a8.86 8.86 0 0 0 2.73 1.42 12 12 0 0 0 3.08 1 22.59 22.59 0 0 0 2.73 0 38.76 38.76 0 0 0 4.63-.58c.76-.1 1.49-.16 2.25-.23 1.47-.15 2.93-.39 4.39-.48a61.5 61.5 0 0 1 8.53.12A34.12 34.12 0 0 1 83.8 17a26.33 26.33 0 0 1 7.35 3.44 16.12 16.12 0 0 1 3.56 2.84 5.91 5.91 0 0 1 1.66-1.89 7.71 7.71 0 0 1 5.93-.72 10.69 10.69 0 0 1 1.54.83 6.8 6.8 0 0 1 3 3.44c.76-.15 1.3-.66 2-.83a9.42 9.42 0 0 1 3.92 0 5.61 5.61 0 0 1 1.18.48s.08.22.12.23a5.81 5.81 0 0 1 2.49 3c0 .15.06.4.12.59a8 8 0 0 1 .35 2.84 6.1 6.1 0 0 1 1.78.48c.09.05.17.2.24.24s.59.14.71.23a8.45 8.45 0 0 1 2.49 5.22 7.75 7.75 0 0 1 0 1.18 5.41 5.41 0 0 1-1.42 3.2 5.84 5.84 0 0 1-1.55 1.43 6.5 6.5 0 0 1-1.18.23c-.42.1-.73.4-1.19.24.08.73.7 1.22.83 2s-.08 1.38 0 2.26a5.88 5.88 0 0 1-5.21 3.32 4.78 4.78 0 0 1-.71 3.08 3.52 3.52 0 0 1-1.81 1.35 4.09 4.09 0 0 1-1.78.71 13.39 13.39 0 0 1-3.67-.12 7.85 7.85 0 0 1-.83-.35c-.28-.12-.52-.12-.83-.24-1.23-.47-2.63-1.14-3.91-1.78a4.2 4.2 0 0 1-1-.71c-.48-.37-1.51-1.06-2-1.42-2.84.59-5.94.23-9.36.23-4.36 0-9.74-.11-14.94.12-1.88.09-3.75-.1-5.57 0-1.3.08-2.89.37-4.5.48-.79 0-1.58 0-2.37.12A12.8 12.8 0 0 0 57 53a6.55 6.55 0 0 0-1.43 1.07c-.46.34-1 .64-1.42 1a19 19 0 0 1-3 1.9c-.86.4-1.62.71-2.49 1.18a4.24 4.24 0 0 0-.95.59c-.1.1-.25.14-.35.24A10 10 0 0 1 44.69 60c.11.43.61.33 1 .47s.63.35 1 .47a18.34 18.34 0 0 1 2 .83 6.85 6.85 0 0 1-1.3 3c-.53.92-1 1.87-1.54 2.73s-1.29 1.6-1.85 2.43c-.3.44-.52.88-.83 1.31s-.78.92-1.19 1.42a52.73 52.73 0 0 1-3.67 4.27c-.72.7-1.47 1.37-2.13 2.13a8.9 8.9 0 0 1-2 2.13c-.31 0-.31-.24-.35-.47-.9-.24-2.32-.67-3.44-1-.52-.13-1-.11-1.54-.24s-.78-.34-1.19-.47c-1.2-.37-2.5-.54-3.67-.83-.25-.06-.51-.06-.71-.12-.42-.11-.78-.36-1.19-.47-.24-.07-.57-.06-.83-.12-1.33-.32-3.23-.78-4.74-1.31-1.75-.61-3.31-1.56-5.1-1.89a3.55 3.55 0 0 1 .83-2.14 22.48 22.48 0 0 1 1.31-1.89c.3-.4.53-.8.83-1.19.07-.09.28-.13.35-.23s0-.26.12-.36c.54-.71 1.26-1.58 1.9-2.37.07-.1.28-.14.35-.24s0-.25.12-.35.45-.31.59-.48.2-.42.36-.59a25.56 25.56 0 0 1 2.25-2c.5-.44.89-.88 1.42-1.31.94-.76 2.18-1.65 3.2-2.49.1-.08.14-.28.24-.35s.25 0 .36-.12.36-.32.59-.47.82-.52 1.18-.83a20.37 20.37 0 0 1 4.63.35c.36-.19.29-.82.47-1.19A1.84 1.84 0 0 0 33 55c-.22-.08-.35 0-.6.12a20.7 20.7 0 0 1-3.32.23c-2.54.17-5.53 0-8.41.12-1.57.07-3.09.19-4.74.12-.57 0-1.19-.17-1.78-.24-2.89-.32-5.6-.67-7.71-1.89a7.51 7.51 0 0 1-2.17-1.66c-.1-.14-.11-.47-.24-.71a6.21 6.21 0 0 1-.35-.6 9.36 9.36 0 0 1-.36-3.79c.09-.77.54-1.53.71-2.37a12.33 12.33 0 0 0-.23-5.09c-.32-.07-.61.3-.95.59s-.54.54-.83.83A3.56 3.56 0 0 1 0 42c-.07-.78.83-1 1.31-1.42.14-.13.22-.34.35-.48a18.82 18.82 0 0 1 1.9-1.66A11 11 0 0 1 3 33.66a6.24 6.24 0 0 1 1.89-3.2 4.37 4.37 0 0 1 3.44-.23 7 7 0 0 0-.47-1.9c-.2-.7-.32-1.37-.48-2.13a14.86 14.86 0 0 1-.47-4.39 21.34 21.34 0 0 1-.86-12.45 4.39 4.39 0 0 1 2.13.36 9.05 9.05 0 0 1 2 .83c.08 0 .13.17.23.24s.66.3 1 .47c2.36 1.35 4.28 3.25 6.52 4.86 1.67-.8 3.34-1.64 5.1-2.37a16.46 16.46 0 0 1 2.84-.83 13.88 13.88 0 0 1 3.09-.59c.67-2.45.86-5.5 1.54-8.3.33-1.5.7-4.03 2.5-4.03a4.77 4.77 0 0 1 1.42.48 9.31 9.31 0 0 1 1.38 1.06c.53.45 1.1 1.08 1.66 1.66.14.15.32.21.47.36 1.7 1.62 3.3 3.29 5 5 .56.56 1.18 1.11 1.66 1.66.27.31.47.68.71 1 .7.69 1.7 1.65 2.47 2.41Zm-1.42-.24c-.35-.43-.56-.94-1-1.18a10.67 10.67 0 0 1-1.54-1.54c-.81-.86-1.69-1.69-2.61-2.61s-1.57-1.8-2.49-2.73-1.79-1.6-2.71-2.48-1.89-2-3.2-2.14c-.33 0-.27.17-.48.24-.63.21-.69 1.37-.95 2.37s-.55 1.78-.71 2.61c-.42 2.16-.53 4.64-1.06 6.28.3 0 .28.44.12.59a48.13 48.13 0 0 0-5 1.07 17.65 17.65 0 0 0-3 1.18c-.48.23-1 .38-1.42.6A17.81 17.81 0 0 1 17.55 17c-.18-.42-.61-.66-.95-.95-.72-.6-1.47-1.13-2.14-1.66-.09-.07-.15-.17-.23-.23s-.26 0-.36-.12a11.58 11.58 0 0 0-1.07-1c-.6-.42-1.2-.85-1.77-1.19s-1.15-.6-1.54-.83a6.76 6.76 0 0 0-2-.83c-.3-.06-.64-.25-1-.11a22.91 22.91 0 0 0 .12 8.77c.11.52.21 1 .36 1.54a10.71 10.71 0 0 1 .47 1.42c0 .32-.13.64-.12 1s.2.46.24.71c.15.91.19 1.7.36 2.49a88.47 88.47 0 0 0 2.72 9c.45.06.86-.25 1.31-.36s.91-.48 1.18 0a4.81 4.81 0 0 1-2.25 1c.39 1.23.95 2.29 1.42 3.44.43 0 .58-.48.83-.71s.62-.45.95-.72a3.7 3.7 0 0 1 2-1.18c-.09.69-.73 1-1.18 1.3a5.14 5.14 0 0 0-1.31 1.19c-.29.26-.77.33-.83.83a4.72 4.72 0 0 0 .95 1.3 12 12 0 0 0 1.07 1.19c.17.15.39.3.59.47s.67.44.83.59a5 5 0 0 0 1.31.83c.36.14.87.13 1.3.24s.88.26 1.3.36 1 .13 1.43.23 1 0 1.06.6a2.38 2.38 0 0 1-1.42.11 10.49 10.49 0 0 1-1.54-.35c-.47-.13-.95-.24-1.42-.36a11.36 11.36 0 0 1-1.54-.35c-.24-.1-.52-.49-.83-.71-.12-.09-.35-.15-.48-.24-.36-.26-.57-.49-.83-.71a18.94 18.94 0 0 1-2.49-2.73A26.62 26.62 0 0 0 7 47.06c-.31.28-.13 1.06-.83.94-.21-1 .51-1.72 1-2.48.09-.17.12-.42.23-.6a12.67 12.67 0 0 1 .83-1.06c.13-.17.24-.43.36-.6a30.31 30.31 0 0 1 2.49-3c.24-.25.84-.47.71-.95a28.78 28.78 0 0 1-1.42-3.44 14 14 0 0 0-3.09 1.31 9.69 9.69 0 0 0-2.84 1.66 12.35 12.35 0 0 1 .12 6.4 18.47 18.47 0 0 0-.59 1.78 7 7 0 0 0 .23 2.49 4.13 4.13 0 0 0 1.78 2.72A10.44 10.44 0 0 0 7 53c2 1.08 4.36 1.34 7 1.66.56.07 1.06.21 1.54.24a50.38 50.38 0 0 0 5.33-.12c2.3-.1 4.73.1 7 0 2-.09 3.81-.35 5.57-.35a15.76 15.76 0 0 1 1.3-1.78c.45-.64.71-1.45 1.19-2h.24c.05 0 .1-.22.11-.23s.15-.25.24-.36a2.89 2.89 0 0 0 1.42-1.18c.49-.55.88-1 1.31-1.55a5 5 0 0 0 .71-.94s.21-.09.24-.12c.35-.42.59-.79.94-1.19a8.51 8.51 0 0 0 1.43-1.66s.2-.07.23-.12.14-.34.24-.47c.33-.43.67-.81.95-1.19s.4-.52.59-.83.39-.55.59-.82.14-.35.24-.48.53-.45.71-.71.24-.63.48-.95.31-.74.83-.59c.23.4-.08.73-.24 1.07a9.62 9.62 0 0 1-.59 1 54.69 54.69 0 0 1-4 5.33c-1 1.1-1.91 2.19-2.85 3.32-1.14 1.36-2.57 2.58-3.55 3.91a5.25 5.25 0 0 0-.6 1s-.2.07-.23.11 0 .18 0 .24-.21.08-.24.12c-.19.27-.49.84-.59 1s0 .1-.12.24c-.26.44-.61.68-.83 1.06a6.81 6.81 0 0 0-.71 1.9 87.72 87.72 0 0 1 10.62 2.18 21.81 21.81 0 0 0 4.39-2c1.4-.84 3-1.3 4.27-2.14.43-.28.74-.63 1.18-1 .26-.18.72-.36.83-.47s.26-.14.36-.24a4.69 4.69 0 0 1 .47-.35 18.8 18.8 0 0 0 1.42-1.31c.19-.18.4-.31.6-.47.78-.66 1.49-1.37 2.25-2 .39-.33.81-.58 1.18-.94s.74-.72 1.07-1.07.61-.8.95-1.19.65-1.07 1.3-.71c0 .55-.49.91-.83 1.31s-.69.81-1.06 1.18A32.82 32.82 0 0 1 59.15 51c-.27.21-.53.57-.71.71s-.27 0-.36.12-.56.44-.12.47c1.12-.15 2.37-.26 3.68-.35s2.68-.29 3.91-.36c2.68-.15 5.47 0 8.18-.12s5.48 0 8.3-.12c4.63-.1 9.06.24 13.15 0 .29-.31-.23-.35-.35-.47s-.32-.43-.48-.59a15.44 15.44 0 0 1-1.06-1.19c-.5-.64-1.06-1.58-1.43-2.13-.07-.11-.17-.15-.23-.24s-.13-.44-.24-.59-.19-.14-.24-.14 0-.24-.12-.36-.19-.06-.23-.11-.06-.27-.12-.36c-.2-.27-.48-.54-.71-.83-.41-.52-.69-1-1.07-1.42s-1.11-.94-.47-1.54c.54-.11.48.39.59.71a22.41 22.41 0 0 1 2 2.37 7.7 7.7 0 0 0 .6.71c.12.15.13.33.23.47a6.54 6.54 0 0 1 .6.95s.21.08.23.12.15.34.24.48.3.56.48.82a9.56 9.56 0 0 0 .82 1c.12.14.13.36.24.48A6.2 6.2 0 0 0 96 50.73s.09.21.12.24a2.07 2.07 0 0 0 .59.35s.08.21.12.24.36.15.48.24a19.83 19.83 0 0 0 2.37 1.66c.28.15.65.33 1 .47a14.85 14.85 0 0 0 2.44 1.07 5.77 5.77 0 0 1 .6.24 6.56 6.56 0 0 0 2.49.59 7.61 7.61 0 0 0 3.31-.59 3.92 3.92 0 0 0 2.14-2.24 6.5 6.5 0 0 0 0-2.81 5.24 5.24 0 0 0-.24-.86c-.08-.29-.15-.6-.24-.83a14.58 14.58 0 0 0-.83-1.42c-.12-.26-.12-.59-.23-.83s-.34-.46-.48-.71c-.74-1.44-1.53-2.94-2.13-4.27 0 0-.21-.07-.24-.12-.13-.22-.21-.49-.35-.71-.47-.72-1-1.34-1.43-2-.23-.42-.38-.89-.59-1.3a30.29 30.29 0 0 0-2-3.2l-.12-.12c-.08-.08 0-.14-.12-.24-.27-.33-.67-.62-1-.94s-.2-.41-.35-.6-.34-.3-.48-.47c-.52-.64-1.06-1.52-1.54-2-.31-.32-.64-.53-1-.82s-.47-.58-.71-.84c-.62-.67-1.26-1.43-1.78-2s-1-1.2-1.42-1.66c-.15-.17-.21-.3-.35-.47a9.62 9.62 0 0 0-1.9-1.66c-.57-.42-1.17-.84-1.66-1.19-.11-.08-.26-.3-.36-.35a14.61 14.61 0 0 1-1.77-.83 4 4 0 0 0-1.19-.6s-.06-.21-.12-.23a4.07 4.07 0 0 0-.47-.12c-.14-.06-.25-.19-.36-.24-.27-.11-.67-.13-.94-.24-.09 0-.25-.19-.36-.23a4.64 4.64 0 0 0-.47-.12c-.7-.22-1.23-.45-1.78-.59h-.6c-.4-.09-.84-.36-1.3-.48l-1-.24a35.37 35.37 0 0 0-6.38-.66 47 47 0 0 0-5.69 0c-.83.07-1.64.25-2.49.36s-1.81.14-2.72.23c-1.7.18-3.4.7-5.1.72-.49 0-.92-.11-1.42-.12s-1.07 0-1.54 0c-2.6-.23-4.72-1.44-6.88-2.61a14.77 14.77 0 0 0-3.67 2.49 8.75 8.75 0 0 1-.71.59 14.31 14.31 0 0 0-2.49 2.49c-.28.31-.44 1-1.07.83.13-1 1.15-1.65 1.54-2.25a3.22 3.22 0 0 1 .72-.71 18.46 18.46 0 0 1 5.09-3.8c.22-.4-.38-.56-.59-.83Zm60 12a7.64 7.64 0 0 0-.35-.83c-.12-.2-.44-.35-.59-.6s-.18-.61-.36-.83a8.06 8.06 0 0 0-1.9-1.3 7 7 0 0 0-1.06-.59 6.12 6.12 0 0 0-1.19-.24c-2.36-.22-4.94.66-5.69 2.85.22.33.64.66.83.94a7.48 7.48 0 0 0 .6.71c.09.13.11.33.23.48s.28.13.36.24.12.36.24.47c.38.39 1 .7 1.42 1.18.2.22.38.47.59.72a4.37 4.37 0 0 1 .71.94s.21.08.24.12c.36.48.62.79.95 1.19.48.6.83 1.3 1.3 1.42a4.37 4.37 0 0 0 1.78-.24c.63-.25.89-1 1.54-1.06.36.44.12 1 .24 1.42 0 .06.19.25.23.35a2.59 2.59 0 0 0 1.78 1.78 5 5 0 0 0 1.3.48c.59.08 1.32-.23 1.9.23-.92 1.1-.32 3.36.24 4.39a6.66 6.66 0 0 1 2.13 1.07c.31.21.65.37.95.59s.53.63 1 .71a3.82 3.82 0 0 0 1 1.19c.84-.31 1.61-.29 2.25-.6a6.46 6.46 0 0 0 1.9-1.89 5.29 5.29 0 0 0 .82-2.73 6.47 6.47 0 0 0-4-6.16c-.6-.09-.71.4-1.19.12a10.48 10.48 0 0 0-.71-4.39 3.37 3.37 0 0 0-1.07-1.42 4.9 4.9 0 0 0-1.18-.95c-.14-.06-.24-.18-.36-.24a6.91 6.91 0 0 0-3.44-.35 2.73 2.73 0 0 0-1.06.35c-.45.23-.89.21-1.19.48-.41 0 0 .89-.59.71-.53-.05-.52-.51-.63-.73ZM9.37 33.43c-.29-.91-.41-1.85-.95-2.26-.12-.08-.3-.32-.36-.35a4.48 4.48 0 0 0-2.84.24 4.54 4.54 0 0 0-.71.94 3.53 3.53 0 0 0-.83 1.9 9.05 9.05 0 0 0 .47 4.15c1.95-.89 3.7-2 5.81-2.73a8.86 8.86 0 0 0-.59-1.89ZM107.63 35c-.81-.44-1-.52-1.31-1.07a9.11 9.11 0 0 1-.83-1.78c-.15.05-.21.17-.35.24a5.24 5.24 0 0 1-1 .35c-.36.11-.89 0-1.07.36.74.73 1.21 1.72 1.9 2.49a21.31 21.31 0 0 0 1.07 2 23.91 23.91 0 0 1 3.55 1.07c.37.12.72.38 1.07.24a5.72 5.72 0 0 1-.24-3.32 4 4 0 0 1-2.79-.58Zm7.58 14.69c.11-.09.1 0 .24-.11a3.26 3.26 0 0 0 .83-.83c.07-.11.17-.15.24-.24.77-1.08.75-2.11.12-3.56a15.93 15.93 0 0 0-.83-1.42c-.13-.21-.13-.46-.24-.59a8 8 0 0 0-1.3-1.07 6 6 0 0 0-3-1.54c-1-1-3.15-1.37-4.5-1.9-.12 0-.14.1-.24.12s-.14 0-.12.12c.24.4.58.7.83 1.07 1.58 2.23 2.69 5.15 4 7.47a6 6 0 0 1 .48.94c.32.82.35 1.69.71 2.49a8.1 8.1 0 0 0 2.78-.98Zm-88.54 8.39c-.05 0-.07.19-.12.24s-.24 0-.35.12-.23.36-.36.47-.27.05-.35.12-.16.17-.24.24c-.68.56-1.51 1.36-2.13 1.77a8.08 8.08 0 0 0-.83.6c-.49.4-.91 1-1.31 1.3-.17.15-.42.21-.59.35s-.06.19-.12.24-.25 0-.35.12a14.66 14.66 0 0 0-1.43 1.54c-.57.65-1.15 1.48-1.65 2-.21.21-.35.45-.48.59s-.32.41-.47.59-.15.24-.24.36c-.45.59-1 1.15-1.42 1.66-.08.1 0 .24-.12.35s-.29.14-.36.24-.16.4-.23.47a2 2 0 0 0-.36.71s-.21.08-.24.12c-.26.44-.46 1-.71 1.43 1.69.57 3.29 1.47 5.1 2 2.08.63 4.38 1.15 6.28 1.66.23.06.48.18.71.24.51.12 1 .13 1.54.23 1 .19 1.82.58 2.73.83.73.21 1.49.31 2.13.48 1.18.31 2.4.55 3.56.95.52-.29.79-.95 1.07-1.31s.6-.46.83-.71.5-.75.83-1.06c.15-.16.45-.24.59-.36s.3-.42.47-.59A60.76 60.76 0 0 0 45.76 66c.8-1.29 1.53-2.52 2.25-3.79a43.52 43.52 0 0 0-9.48-3.08 52.15 52.15 0 0 0-11-1.66c-.19.4-.53.4-.86.61Z"/><path class="acls-7" d="M35.92 19.2c-.4.55-1.31.59-1.9.95-.33 0-.27.44-.47.59-1.3.92-1.88 2.55-2.61 4-.52-.07-1.12-.06-1.42-.35-.1-.76.51-1.34.95-1.9A15.62 15.62 0 0 1 31.65 21c.13-.13.4-.19.59-.36s.23-.38.36-.47.58-.22.83-.35a3 3 0 0 1 2.49-.62ZM59.51 19.44c0 .43-.62.22-1.07.24a21.61 21.61 0 0 0-3.2.35c-1.88.32-4 .49-5.93.83a22.33 22.33 0 0 0-5.21 1.54c-.54.25-1 .7-1.66.6.06-.31.38-.43.59-.6a5.14 5.14 0 0 1 .71-.47c2.81-1.52 7.22-1.85 11-2.49a13.84 13.84 0 0 1 3.56-.36c.36.02 1.13-.24 1.21.36ZM33.31 27.14a10.63 10.63 0 0 1-.12-2c0-.06.23-.19.24-.24s0-.26 0-.35A5.27 5.27 0 0 1 35.21 23a10.39 10.39 0 0 1 1.18-.48 5.62 5.62 0 0 1 1.07-.47 1.57 1.57 0 0 1 1.54 2.6c0 .05-.22.09-.24.12-.2.46-.67.75-1.42 1.19a6.68 6.68 0 0 1-4.03 1.18Zm4.27-4.5a9.42 9.42 0 0 0-2.25.95c-.13.07-.22.26-.36.35a2.25 2.25 0 0 0-1.18 1.43 1.39 1.39 0 0 0 0 1.06 5.23 5.23 0 0 0 1.77-.23c.3-.14.64-.37.83-.48 1.08-.57 2.56-1.17 2.37-2.72a1.64 1.64 0 0 0-1.18-.36ZM24.42 26.79c0 .24-.32.24-.47.35s0 .52-.24.6a7.55 7.55 0 0 1-1.9 0c-.31-.07-.49-.33-.83-.36a6.38 6.38 0 0 0-1.18.12 6.25 6.25 0 0 0-1.66.35c-.21.1-.44.16-.59.24-.52.28-.91 1-1.54.71-.09-.61.71-1 1.3-1.3a8.27 8.27 0 0 1 3.79-1.19c1.41-.1 2.62-.09 3.32.48ZM29 27.26c.13.62-.42 1-.59 1.43-.08.18 0 .48-.12.71s-.23.33-.23.47c0 .93.76 1.6.71 2.73 1.16-.21 2.27-.29 3.43-.48s2.14-.63 3.2-.35c.08.47-.45.4-.71.47a41 41 0 0 1-6.52.95 7.84 7.84 0 0 0-1.06 1.42c-.34.42-.83.76-1.19 1.19-.07.08-.05.16-.12.23s-.38.58-.59.83c0 0-.22.09-.24.12a2.46 2.46 0 0 1-.59.83c-.26.22-.4.52-.83.36-.25-.34.19-.62.36-.83.52-.68 1.16-1.41 1.77-2.14.83-1 1.63-2 2.38-3-.09-.86-.56-1.34-.6-2.25-.37 0-.87.08-1.06-.12-.26.06-.23-.17-.24-.36-.3-.13-.82 0-.95-.35A3.21 3.21 0 0 1 26.67 28c.26-.12.63-.23.95-.35a3 3 0 0 1 1.38-.39ZM38.41 28.33a2.78 2.78 0 0 1 .12 2 2.66 2.66 0 0 1-1.43 0 3.28 3.28 0 0 1-.23-1.55 3.63 3.63 0 0 1 1.54-.45ZM37.46 30c.28.05.26-.22.59-.12V29h-.47c-.19.21-.11.65-.12 1Z"/><path class="acls-7" d="M32.48 28.8c.13.52.22 1.31-.12 1.66-.13 0-.21 0-.23.12-1 .09-1.4-.47-1.31-1.07s1.03-.89 1.66-.71ZM31.41 30c.23.22.22-.07.6 0v-.6c-.41-.02-.69.1-.6.6ZM17.55 34.14c-.45-2 .43-3 2-3.79a3.5 3.5 0 0 1 1.78-.6c1.2-.1 2.62.37 2.13 1.9 0 .14-.38.32-.47.47a5.13 5.13 0 0 1-5.44 2.02Zm1.3-2.61a1.71 1.71 0 0 0-.71 2A4.66 4.66 0 0 0 22.41 32a1.66 1.66 0 0 0 .47-1.3 3.83 3.83 0 0 0-4.03.83ZM23.35 34.49c.49.78.27 2.44-.94 2.25-1.06-.74-.12-2.64.94-2.25ZM22.29 36h.59c0-.22.31-.78 0-.94a1.7 1.7 0 0 0-.59.94ZM33 37.1c-.52.08-.66-.21-.83-.47-.23 0-.1.46-.48.35 0-.76.31-1.11.36-1.78.47-.6 1.28-.21 1.66.24A1.59 1.59 0 0 1 33 37.1Zm-.12-.71c.33-.22.33-1-.24-1-.32.48-.25.81.2 1ZM25.37 68.87c.5.16 1.09-.39 1.78-.48a3.48 3.48 0 0 1 3 1 5.58 5.58 0 0 1 2.69-.39 5.45 5.45 0 0 1 1.89 1.65 6.55 6.55 0 0 1 .48 3.92c-.24.77-1.38 2.24-2.37 2.37a3.34 3.34 0 0 1-1 0c-.06 0-.2-.23-.24-.24a2.47 2.47 0 0 1-1.3-.71 5.2 5.2 0 0 1-.59-1.42 2.91 2.91 0 0 1-.48-1.43c-.15-.18-.32 0-.47.12a9.55 9.55 0 0 1-2 1 7.45 7.45 0 0 1-2.61.36c-.06 0-.33-.19-.47-.24a2.05 2.05 0 0 1-1.3-1.42 5.12 5.12 0 0 1-1.38-.18 4.51 4.51 0 0 1-1.42-.12c-.1 0-.15-.29-.24-.36s-.31-.07-.35-.12a4 4 0 0 1-.36-1.06c-.41-1.35-.05-2 .6-3.2.82-1.49 2.16-3.19 5-2.73a3.43 3.43 0 0 1 1.31 1.31 11.19 11.19 0 0 1-.17 2.37Zm-1.9 1.42c.32-.24.73-.52 1-.71s0-.09.12-.24c.43-.75.56-2.78-.12-3.2-.09 0-.17-.21-.24-.24a4.06 4.06 0 0 0-2.53.1 5.72 5.72 0 0 0-1.31 1.19 7 7 0 0 0-1.3 2.72 2.54 2.54 0 0 0 .83 2.14 9.17 9.17 0 0 0 2 .11 12.12 12.12 0 0 1 1.55-1.87Zm1.9 3.55c1.86-.1 4.39-1.61 4.39-3.2 0-1.16-1.11-1.73-2.26-1.65-1.33.08-4.36 1.93-4.5 3a5.5 5.5 0 0 0 .12.71c.05.29.24.5.23.71a3 3 0 0 0 2.02.43Zm5 .36a4.5 4.5 0 0 0 .71 1.54 2.31 2.31 0 0 0 1.9.47c.26-.06.86-.74 1.06-1.06a3.59 3.59 0 0 0 .71-1.54c.13-1.47-.76-3.5-2.13-3.91a3.44 3.44 0 0 0-2.25.23 3.51 3.51 0 0 1-.59 2.61 8.57 8.57 0 0 0 .57 1.66Z"/><path class="acls-8" d="M39.39 63.67c-.2-.26-.22-.42 0-.65a2 2 0 0 0 .52-.94s-.07-.15-.13-.19a.28.28 0 0 0-.21 0 1 1 0 0 0-.28.23 1.18 1.18 0 0 1-1.76.45c-.16-.09-.4 0-.6-.05s-.33-.13-.34-.41v-.36c0-.31.12-.64-.18-.9-.49.08-.29.51-.38.78a2.38 2.38 0 0 0-.16.58.55.55 0 0 1-.45.51 4.72 4.72 0 0 0-1.22.52 1.42 1.42 0 0 0-.79 1.39v.24a.63.63 0 0 0 .64.61 7.5 7.5 0 0 0 1.34 0c.64-.08 1.12 0 1.33.71a.33.33 0 0 0 .16.17.55.55 0 0 0 .33 0 .32.32 0 0 0 .23-.37c-.1-.31-.36-.61-.33-.9s.57-.41.8-.68l.09-.09c.58-.58.68-.39 1.12.17a2.14 2.14 0 0 1 .25.41c.23.43.19.61-.18 1.06a.94.94 0 0 0-.17.31.31.31 0 0 0 .25.35.67.67 0 0 0 .35 0 1.11 1.11 0 0 0 .61-.85 2.06 2.06 0 0 0-.44-1.6c-.14-.17-.27-.34-.4-.5Zm-3.6 1-.8.06h-.63c-.15 0-.27-.27-.18-.38a1.71 1.71 0 0 1 .39-.45c.34-.2.71-.36 1.07-.53 0 0 .16 0 .17.08.1.3.18.61.25.92a.32.32 0 0 1-.27.31Zm1.81-1a2.21 2.21 0 0 1-.4.28c-.12.08-.22.27-.4.11a.76.76 0 0 1-.19-.67.2.2 0 0 1 .09-.09.8.8 0 0 1 .89.09s0 .06.07.1-.02.15-.06.18ZM31.24 65.22a.19.19 0 0 0 0-.3l-1-.94a.29.29 0 0 1 0-.43c.17-.19.36-.34.51-.53a.77.77 0 0 1 1-.23c.11 0 .22.1.33.13s.32-.15.3-.3a.68.68 0 0 0-.11-.34 1.24 1.24 0 0 0-.28-.22c-.29-.21-.29-.21-.13-.53s.21-.41.72-.3a1.31 1.31 0 0 0 .83 0c.1 0 .14-.11.07-.19a4.29 4.29 0 0 0-.42-.43c-.16-.12-.37-.17-.52-.3s.09-.36 0-.55a.6.6 0 0 0-.11-.21c-.07-.08-.15-.22-.29-.1s-.14.1-.16.17c-.15.45-.47.52-.88.42a3.8 3.8 0 0 0-.58-.15A2.33 2.33 0 0 0 29 60c-.09.06-.27.07-.16.24a.48.48 0 0 0 .26.23 1.52 1.52 0 0 0 .6.06 3.87 3.87 0 0 1 1.43.24c.25.07.13.23.07.36-.28.57-.28.55-.91.45a6.58 6.58 0 0 0-1.09-.05.2.2 0 0 0-.21.23.43.43 0 0 0 .09.21.76.76 0 0 0 .53.25 1.55 1.55 0 0 1 .47.12s.09.17.06.2a2.36 2.36 0 0 1-.59.59c-.25.15-.42-.15-.62-.26l-.32-.17a1.54 1.54 0 0 0-1.29-.15c-.45.11-.59.3-.58.78a4.18 4.18 0 0 0 0 .61.64.64 0 0 0 .6.5h1.41a.75.75 0 0 1 1 .14 6.52 6.52 0 0 0 .77.59.7.7 0 0 0 .3.17.48.48 0 0 0 .42-.12ZM28.6 63.7a.64.64 0 0 1-1-.06.29.29 0 0 1 0-.22.45.45 0 0 1 .26-.19c.31-.06.52.18.78.28a.27.27 0 0 1 .07.08.39.39 0 0 1-.11.11Z"/></g></g></symbol><symbol fill="none" viewBox="0 0 35 35" id="Group_113" xmlns="http://www.w3.org/2000/svg"><g filter="url(#ba)"><path fill-rule="evenodd" clip-rule="evenodd" d="M17.5 35C27.165 35 35 27.165 35 17.5S27.165 0 17.5 0 0 7.835 0 17.5 7.835 35 17.5 35Z" fill="currentColor"/></g><path fill-rule="evenodd" clip-rule="evenodd" d="M24.535 11.23a1.412 1.412 0 0 0-1.996 0l-4.657 4.656-4.567-4.567a1.412 1.412 0 0 0-1.996 1.997l4.567 4.566-4.656 4.656a1.412 1.412 0 1 0 1.996 1.997l4.656-4.656 4.567 4.567a1.412 1.412 0 0 0 1.997-1.997l-4.567-4.567 4.656-4.656a1.412 1.412 0 0 0 0-1.996Z" fill="currentColor"/><defs><filter id="ba" x="-54.366" y="-54.366" width="143.731" height="143.731" filterUnits="userSpaceOnUse" color-interpolation-filters="sRGB"><feFlood flood-opacity="0" result="BackgroundImageFix"/><feGaussianBlur in="BackgroundImage" stdDeviation="27.183"/><feComposite in2="SourceAlpha" operator="in" result="effect1_backgroundBlur"/><feBlend in="SourceGraphic" in2="effect1_backgroundBlur" result="shape"/></filter></defs></symbol><symbol fill="none" viewBox="0 0 814 112" id="ROLLOSVIT" xmlns="http://www.w3.org/2000/svg"><path opacity=".25" d="M1.1 109h-1v1h1v-1Zm0-106.5v-1h-1v1h1Zm60.6 3-.438.899.008.004.43-.903Zm10.8 8.1-.75.662.006.006.005.006.739-.674ZM79.55 25l-.934.356.003.01.004.01.927-.376Zm.15 25.95-.935-.356-.004.012.939.344Zm-6.6 10.8-.73-.683.73.683Zm-10.2 7.2-.4-.917-1.048.457.593.979.855-.519ZM87.2 109v1h1.776l-.921-1.519-.855.519Zm-22.8 0-.852.523.292.477h.56v-1ZM42.5 73.3l.852-.523-.292-.477h-.56v1Zm-20.7 0v-1h-1v1h1Zm0 35.7v1h1v-1h-1Zm0-53.85h-1v1h1v-1Zm32.85-2.25.6.8.013-.01.012-.01-.625-.78Zm4.8-6.3.908.42-.908-.42Zm-.3-17.55-.88.474.003.007.005.008.872-.489Zm-5.4-6.15-.581.814.009.006.009.006.563-.826ZM21.8 20.65v-1h-1v1h1ZM2.1 109V2.5h-2V109h2ZM1.1 3.5h47.1v-2H1.1v2Zm47.1 0c4.76 0 9.108.97 13.062 2.899l.876-1.798C57.892 2.53 53.24 1.5 48.2 1.5v2Zm13.07 2.903c4.081 1.943 7.572 4.562 10.48 7.859l1.5-1.324c-3.092-3.503-6.802-6.284-11.12-8.34l-.86 1.805Zm10.491 7.87c3.018 3.31 5.3 7.003 6.855 11.083l1.868-.712c-1.645-4.32-4.063-8.227-7.245-11.718l-1.478 1.348Zm6.862 11.102C80.276 29.46 81.1 33.632 81.1 37.9h2c0-4.532-.876-8.96-2.623-13.275l-1.854.75ZM81.1 37.9c0 4.379-.778 8.608-2.334 12.694l1.868.712A37.356 37.356 0 0 0 83.1 37.9h-2Zm-2.34 12.706c-1.454 3.978-3.585 7.462-6.39 10.46l1.46 1.367c2.995-3.2 5.264-6.917 6.81-11.14l-1.88-.687Zm-6.39 10.46c-2.807 3.001-6.094 5.322-9.87 6.967l.8 1.834a31.525 31.525 0 0 0 10.53-7.434l-1.46-1.366ZM62.045 69.47l24.3 40.05 1.71-1.038-24.3-40.05-1.71 1.038ZM87.2 108H64.4v2h22.8v-2Zm-21.948.477-21.9-35.7-1.704 1.046 21.9 35.7 1.704-1.046ZM42.5 72.3H21.8v2h20.7v-2Zm-21.7 1V109h2V73.3h-2Zm1 34.7H1.1v2h20.7v-2Zm0-51.85h25.95v-2H21.8v2Zm25.95 0c2.807 0 5.32-.815 7.5-2.45l-1.2-1.6c-1.82 1.365-3.907 2.05-6.3 2.05v2Zm7.525-2.47c2.135-1.707 3.826-3.937 5.083-6.66l-1.816-.84c-1.143 2.477-2.652 4.447-4.517 5.94l1.25 1.56Zm5.083-6.66c1.267-2.747 1.892-5.792 1.892-9.12h-2c0 3.072-.575 5.827-1.708 8.28l1.816.84Zm1.892-9.12c0-3.54-.73-6.664-2.227-9.339l-1.745.978c1.302 2.325 1.972 5.1 1.972 8.361h2Zm-2.22-9.324c-1.467-2.726-3.37-4.902-5.717-6.502l-1.126 1.652c2.053 1.4 3.75 3.324 5.083 5.798l1.76-.948Zm-5.699-6.49c-2.264-1.617-4.766-2.436-7.481-2.436v2c2.285 0 4.383.68 6.319 2.064l1.162-1.628ZM46.85 19.65H21.8v2h25.05v-2Zm-26.05 1v34.5h2v-34.5h-2Zm103.62 84.6-.43.903.005.002.425-.905ZM108.07 93.1l-.756.654.006.008.007.008.743-.67Zm-10.5-17.4-.933.359.001.005.932-.364Zm.15-40.2-.924-.384-.003.008.927.376Zm10.95-17.25-.735-.678h-.001l.736.678Zm16.5-12 .418.908.006-.003-.424-.905Zm42 .15-.442.897.006.003.436-.9Zm16.35 12.45-.756.654.756-.654Zm10.5 17.4.931-.364-.931.364Zm-.15 40.05.926.376.002-.005-.928-.371Zm-10.95 17.25-.735-.678h-.001l.736.678Zm-16.5 11.85-.413-.911-.005.003.418.908Zm-49.5-36.3-.951.31.951-.31Zm6 11.55-.794.607.01.013.01.013.774-.633Zm9.75 7.95-.466.885.014.007.014.007.438-.899Zm26.55-.15.456.89.009-.005.009-.004-.474-.881Zm9.75-8.25.794.608.009-.012-.803-.596Zm5.85-11.55-.951-.31-.002.007-.002.007.955.296Zm-.15-26.1-.951.31.004.013.005.013.942-.336Zm-6.15-11.4-.794.607.01.013.01.013.774-.633Zm-9.75-7.95-.466.885.014.007.014.007.438-.899Zm-26.4.15.466.885.008-.005-.474-.88Zm-9.6 8.1-.794-.607.794.607Zm-6 11.4-.949-.316-.003.01-.003.01.955.296Zm28.95 65.9c-7.669 0-14.622-1.474-20.876-4.405l-.849 1.81c6.547 3.069 13.794 4.595 21.725 4.595v-2Zm-20.87-4.403c-6.184-2.944-11.527-6.916-16.038-11.917l-1.485 1.34c4.69 5.199 10.246 9.327 16.663 12.383l.86-1.806Zm-16.024-11.901a58.475 58.475 0 0 1-10.325-17.11l-1.863.728a60.453 60.453 0 0 0 10.676 17.69l1.512-1.308ZM98.503 75.34c-2.457-6.388-3.683-12.917-3.683-19.591h-2c0 6.926 1.274 13.697 3.817 20.309l1.866-.718ZM94.82 55.75c0-6.975 1.276-13.596 3.826-19.874l-1.853-.752c-2.65 6.523-3.973 13.4-3.973 20.626h2Zm3.823-19.866c2.657-6.396 6.245-12.046 10.763-16.957l-1.472-1.354c-4.682 5.09-8.394 10.94-11.138 17.543l1.847.768Zm10.762-16.956a50.523 50.523 0 0 1 16.183-11.77l-.836-1.816a52.509 52.509 0 0 0-16.817 12.23l1.47 1.356Zm16.189-11.773c6.258-2.933 13.111-4.405 20.576-4.405v-2c-7.736 0-14.882 1.528-21.425 4.595l.849 1.81ZM146.17 2.75c7.562 0 14.409 1.521 20.558 4.547l.883-1.794C161.161 2.329 154.008.75 146.17.75v2Zm20.564 4.55c6.282 3.043 11.622 7.11 16.03 12.204l1.512-1.308c-4.592-5.307-10.152-9.539-16.67-12.696l-.872 1.8Zm16.03 12.204a58.461 58.461 0 0 1 10.324 17.11l1.863-.728a60.44 60.44 0 0 0-10.675-17.69l-1.512 1.308Zm10.324 17.11c2.456 6.285 3.682 12.762 3.682 19.436h2c0-6.926-1.274-13.65-3.819-20.164l-1.863.728Zm3.682 19.436a53.033 53.033 0 0 1-3.829 19.879l1.857.742a55.023 55.023 0 0 0 3.972-20.621h-2Zm-3.827 19.874a55.794 55.794 0 0 1-10.758 16.948l1.47 1.356a57.801 57.801 0 0 0 11.141-17.552l-1.853-.752Zm-10.759 16.949c-4.506 4.898-9.895 8.77-16.177 11.616l.826 1.822c6.518-2.954 12.129-6.982 16.823-12.084l-1.472-1.354Zm-16.182 11.619c-6.159 2.834-12.915 4.258-20.282 4.258v2c7.632 0 14.677-1.476 21.118-4.442l-.836-1.816ZM113.82 55.75c0 4.703.716 9.258 2.149 13.66l1.902-.62a41.847 41.847 0 0 1-2.051-13.04h-2Zm2.149 13.66c1.433 4.4 3.484 8.353 6.157 11.847l1.588-1.215c-2.527-3.305-4.476-7.053-5.843-11.252l-1.902.62Zm6.177 11.873a32.292 32.292 0 0 0 10.058 8.202l.932-1.77a30.291 30.291 0 0 1-9.442-7.698l-1.548 1.266Zm10.086 8.216c4.053 1.975 8.606 2.951 13.638 2.951v-2c-4.768 0-9.015-.924-12.762-2.749l-.876 1.798Zm13.638 2.951c5.136 0 9.746-1.028 13.806-3.11l-.912-1.78c-3.74 1.918-8.03 2.89-12.894 2.89v2Zm13.824-3.12c4.02-2.164 7.381-5.006 10.07-8.523l-1.588-1.214c-2.511 3.283-5.651 5.941-9.43 7.977l.948 1.76Zm10.079-8.534a39.127 39.127 0 0 0 6.002-11.85l-1.91-.592a37.136 37.136 0 0 1-5.698 11.25l1.606 1.192Zm5.998-11.836c1.431-4.395 2.149-8.8 2.149-13.21h-2c0 4.19-.682 8.385-2.051 12.59l1.902.62Zm2.149-13.21c0-4.711-.769-9.225-2.308-13.536l-1.884.672c1.46 4.089 2.192 8.375 2.192 12.864h2Zm-2.299-13.51c-1.436-4.41-3.544-8.322-6.327-11.723l-1.548 1.266c2.617 3.198 4.609 6.887 5.973 11.077l1.902-.62Zm-6.307-11.698c-2.696-3.525-6.068-6.274-10.106-8.241l-.876 1.798c3.762 1.833 6.889 4.384 9.394 7.658l1.588-1.215Zm-10.078-8.227c-3.96-2.084-8.423-3.115-13.366-3.115v2c4.657 0 8.794.969 12.434 2.885l.932-1.77ZM145.87 19.2c-5.24 0-9.908 1.08-13.974 3.27l.948 1.76c3.734-2.01 8.066-3.03 13.026-3.03v-2Zm-13.966 3.265a29.86 29.86 0 0 0-9.928 8.378l1.588 1.214a27.876 27.876 0 0 1 9.272-7.822l-.932-1.77Zm-9.928 8.378c-2.67 3.49-4.721 7.39-6.155 11.69l1.898.633c1.366-4.098 3.315-7.8 5.845-11.109l-1.588-1.215Zm-6.161 11.711a44.373 44.373 0 0 0-1.995 13.196h2c0-4.3.635-8.5 1.905-12.604l-1.91-.592ZM213.649 109h-1v1h1v-1Zm0-106.5v-1h-1v1h1Zm20.7 0h1v-1h-1v1Zm0 88.35h-1v1h1v-1Zm54.3 0h1v-1h-1v1Zm0 18.15v1h1v-1h-1Zm-74 0V2.5h-2V109h2Zm-1-105.5h20.7v-2h-20.7v2Zm19.7-1v88.35h2V2.5h-2Zm1 89.35h54.3v-2h-54.3v2Zm53.3-1V109h2V90.85h-2Zm1 17.15h-75v2h75v-2Zm12.597 1h-1v1h1v-1Zm0-106.5v-1h-1v1h1Zm20.7 0h1v-1h-1v1Zm0 88.35h-1v1h1v-1Zm54.3 0h1v-1h-1v1Zm0 18.15v1h1v-1h-1Zm-74 0V2.5h-2V109h2Zm-1-105.5h20.7v-2h-20.7v2Zm19.7-1v88.35h2V2.5h-2Zm1 89.35h54.3v-2h-54.3v2Zm53.3-1V109h2V90.85h-2Zm1 17.15h-75v2h75v-2Zm34.404-2.75-.43.903.006.002.424-.905ZM394.3 93.1l-.756.654.007.008.007.008.742-.67Zm-10.5-17.4-.933.359.002.005.931-.364Zm.15-40.2-.923-.384-.003.008.926.376Zm10.95-17.25-.735-.678h-.001l.736.678Zm16.5-12 .419.908.006-.003-.425-.905Zm42 .15-.441.897.005.003.436-.9Zm16.35 12.45-.756.654.756-.654Zm10.5 17.4.932-.364-.932.364Zm-.15 40.05.927.376.002-.005-.929-.371Zm-10.95 17.25-.735-.678h-.001l.736.678Zm-16.5 11.85-.412-.911-.006.003.418.908Zm-49.5-36.3-.95.31.95-.31Zm6 11.55-.794.607.01.013.01.013.774-.633Zm9.75 7.95-.465.885.013.007.014.007.438-.899Zm26.55-.15.457.89.009-.005.008-.004-.474-.881Zm9.75-8.25.795.608.008-.012-.803-.596Zm5.85-11.55-.95-.31-.003.007-.002.007.955.296Zm-.15-26.1-.95.31.004.013.005.013.941-.336Zm-6.15-11.4-.794.607.01.013.01.013.774-.633ZM445 23.2l-.465.885.013.007.014.007.438-.899Zm-26.4.15.466.885.008-.005-.474-.88Zm-9.6 8.1-.794-.607.794.607Zm-6 11.4-.948-.316-.004.01-.003.01.955.296Zm28.95 65.9c-7.668 0-14.621-1.474-20.875-4.405l-.849 1.81c6.546 3.069 13.793 4.595 21.724 4.595v-2Zm-20.87-4.403c-6.183-2.944-11.526-6.916-16.037-11.917l-1.485 1.34c4.689 5.199 10.246 9.327 16.662 12.383l.86-1.806Zm-16.023-11.901a58.442 58.442 0 0 1-10.325-17.11l-1.863.728a60.462 60.462 0 0 0 10.675 17.69l1.513-1.308ZM384.734 75.34c-2.457-6.388-3.684-12.917-3.684-19.591h-2c0 6.926 1.274 13.697 3.817 20.309l1.867-.718ZM381.05 55.75c0-6.975 1.277-13.596 3.827-19.874l-1.853-.752c-2.65 6.523-3.974 13.4-3.974 20.626h2Zm3.824-19.866c2.657-6.396 6.244-12.046 10.762-16.957l-1.472-1.354c-4.682 5.09-8.394 10.94-11.137 17.543l1.847.768Zm10.762-16.956a50.501 50.501 0 0 1 16.183-11.77l-.837-1.816a52.509 52.509 0 0 0-16.817 12.23l1.471 1.356Zm16.189-11.773c6.257-2.933 13.111-4.405 20.575-4.405v-2c-7.735 0-14.881 1.528-21.424 4.595l.849 1.81ZM432.4 2.75c7.562 0 14.409 1.521 20.559 4.547l.883-1.794C447.392 2.329 440.238.75 432.4.75v2Zm20.564 4.55c6.282 3.043 11.622 7.11 16.03 12.204l1.513-1.308c-4.592-5.307-10.153-9.539-16.671-12.696l-.872 1.8Zm16.03 12.204a58.464 58.464 0 0 1 10.325 17.11l1.863-.728a60.484 60.484 0 0 0-10.675-17.69l-1.513 1.308Zm10.325 17.11C481.774 42.899 483 49.376 483 56.05h2c0-6.926-1.273-13.65-3.818-20.164l-1.863.728ZM483 56.05a53.032 53.032 0 0 1-3.828 19.879l1.857.742A55.042 55.042 0 0 0 485 56.05h-2Zm-3.826 19.874a55.816 55.816 0 0 1-10.759 16.948l1.471 1.356a57.801 57.801 0 0 0 11.141-17.552l-1.853-.752Zm-10.76 16.949c-4.505 4.898-9.894 8.77-16.176 11.616l.825 1.822c6.518-2.954 12.129-6.982 16.823-12.084l-1.472-1.354Zm-16.182 11.619c-6.158 2.834-12.914 4.258-20.282 4.258v2c7.633 0 14.677-1.476 21.119-4.442l-.837-1.816ZM400.05 55.75c0 4.703.716 9.258 2.15 13.66l1.901-.62a41.847 41.847 0 0 1-2.051-13.04h-2Zm2.15 13.66c1.433 4.4 3.484 8.353 6.156 11.847l1.589-1.215c-2.528-3.305-4.477-7.053-5.844-11.252l-1.901.62Zm6.176 11.873a32.307 32.307 0 0 0 10.059 8.202l.931-1.77a30.314 30.314 0 0 1-9.442-7.698l-1.548 1.266Zm10.086 8.216c4.054 1.975 8.606 2.951 13.638 2.951v-2c-4.768 0-9.015-.924-12.762-2.749l-.876 1.798ZM432.1 92.45c5.137 0 9.747-1.028 13.807-3.11l-.913-1.78c-3.74 1.918-8.03 2.89-12.894 2.89v2Zm13.824-3.12c4.021-2.164 7.382-5.006 10.071-8.523l-1.589-1.214c-2.511 3.283-5.65 5.941-9.43 7.977l.948 1.76Zm10.079-8.534a39.153 39.153 0 0 0 6.003-11.85l-1.911-.592a37.134 37.134 0 0 1-5.697 11.25l1.605 1.192Zm5.998-11.836c1.431-4.395 2.149-8.8 2.149-13.21h-2c0 4.19-.681 8.385-2.05 12.59l1.901.62Zm2.149-13.21c0-4.711-.768-9.225-2.308-13.536l-1.883.672c1.46 4.089 2.191 8.375 2.191 12.864h2Zm-2.299-13.51c-1.436-4.41-3.543-8.322-6.327-11.723l-1.548 1.266c2.617 3.198 4.61 6.887 5.974 11.077l1.901-.62Zm-6.306-11.698c-2.696-3.525-6.069-6.274-10.107-8.241l-.876 1.798c3.763 1.833 6.89 4.384 9.394 7.658l1.589-1.215Zm-10.079-8.227c-3.96-2.084-8.423-3.115-13.366-3.115v2c4.658 0 8.795.969 12.435 2.885l.931-1.77ZM432.1 19.2c-5.24 0-9.907 1.08-13.974 3.27l.948 1.76c3.734-2.01 8.067-3.03 13.026-3.03v-2Zm-13.965 3.265a29.864 29.864 0 0 0-9.929 8.378l1.589 1.214a27.862 27.862 0 0 1 9.271-7.822l-.931-1.77Zm-9.929 8.378c-2.669 3.49-4.721 7.39-6.154 11.69l1.897.633c1.366-4.098 3.315-7.8 5.846-11.109l-1.589-1.215Zm-6.161 11.711a44.373 44.373 0 0 0-1.995 13.196h2c0-4.3.635-8.5 1.906-12.604l-1.911-.592ZM562.89 30.4l-.707.707.945.946.64-1.175-.878-.478Zm-3.9-2.85-.555.832.01.007.011.006.534-.845Zm-6.75-3.45-.39.921.013.005.377-.926Zm-8.55-2.85-.279.96.014.005.015.003.25-.968Zm-22.2 1.8-.587-.81-.006.005-.007.005.6.8Zm6.6 20.1-.316.949.316-.949Zm13.5 3.9-.251.968.007.002.008.002.236-.972Zm18.15 6.3-.44.898.01.005.011.005.419-.908Zm11.85 9.6-.829.56.008.012.009.011.812-.583Zm1.05 30.3.885.465.005-.01-.89-.455Zm-21.3 15.3.228.974.01-.003.009-.002-.247-.969Zm-46.2-4.65-.394.919.008.004.008.003.378-.926Zm-13.5-7.5-.89-.456-.396.772.708.5.578-.816Zm9.15-17.85.707-.707-.971-.97-.626 1.22.89.457Zm4.8 3.6-.546.838.013.008.013.008.52-.854Zm8.4 4.35-.414.91.012.006.011.005.391-.921Zm10.8 3.6-.249.969.249-.969Zm24.6-1.35-.548-.837.548.837Zm-8.7-20.25-.323.946.01.004.011.003.302-.953ZM526.14 64l.275-.962h-.002l-.273.962Zm-16.8-6.3-.471.882.008.005.008.003.455-.89Zm-10.05-9-.853.521.853-.521Zm1.8-31.8-.819-.573-.003.003.822.57Zm14.1-11.25.39.92.007-.002.006-.003-.403-.915Zm33.75-2.25-.243.97.005.001.238-.971Zm12.6 4.35.419-.908-.419.908Zm10.5 5.85.878.478.434-.797-.751-.509-.561.828Zm-8.443 16.093c-.786-.786-2.169-1.786-4.073-2.989l-1.068 1.691c1.896 1.198 3.112 2.098 3.727 2.712l1.414-1.414Zm-4.052-2.975c-1.872-1.248-4.186-2.427-6.928-3.544l-.754 1.852c2.657 1.083 4.843 2.204 6.572 3.356l1.11-1.664Zm-6.915-3.539c-2.651-1.121-5.549-2.087-8.69-2.897l-.5 1.936c3.058.79 5.861 1.724 8.41 2.803l.78-1.842Zm-8.661-2.89a34.735 34.735 0 0 0-9.729-1.389v2c3.105 0 6.161.436 9.171 1.31l.558-1.92ZM534.24 18.9c-5.7 0-10.194 1.065-13.337 3.34l1.173 1.62c2.658-1.924 6.664-2.96 12.164-2.96v-2Zm-13.35 3.35c-3.076 2.307-4.6 5.567-4.6 9.65h2c0-3.516 1.276-6.157 3.8-8.05l-1.2-1.6Zm-4.6 9.65c0 3.124.979 5.706 3.013 7.627l1.373-1.454c-1.565-1.479-2.386-3.497-2.386-6.173h-2Zm3.013 7.627c1.947 1.839 4.799 3.348 8.471 4.572l.632-1.898c-3.528-1.176-6.077-2.567-7.73-4.128l-1.373 1.454Zm8.471 4.572c3.629 1.21 8.152 2.516 13.565 3.919l.502-1.936c-5.387-1.397-9.864-2.69-13.435-3.88l-.632 1.897Zm13.58 3.923c6.947 1.687 12.925 3.765 17.946 6.226l.88-1.796c-5.18-2.539-11.301-4.661-18.354-6.374l-.472 1.944Zm17.967 6.236c5.065 2.338 8.86 5.43 11.44 9.252l1.658-1.12c-2.82-4.177-6.925-7.486-12.26-9.948l-.838 1.816Zm11.457 9.275c2.641 3.68 4.012 8.653 4.012 15.017h2c0-6.636-1.429-12.062-4.388-16.183l-1.624 1.166Zm4.012 15.017c0 5.578-1.028 10.315-3.04 14.244l1.78.912c2.187-4.27 3.26-9.334 3.26-15.156h-2Zm-3.036 14.235c-2.024 3.856-4.813 6.98-8.374 9.386l1.12 1.658c3.838-2.594 6.849-5.97 9.025-10.114l-1.771-.93Zm-8.374 9.386c-3.597 2.431-7.689 4.236-12.288 5.41l.495 1.938c4.802-1.226 9.109-3.121 12.913-5.69l-1.12-1.658Zm-12.268 5.405c-4.618 1.081-9.541 1.624-14.772 1.624v2c5.369 0 10.446-.557 15.228-1.676l-.456-1.948ZM536.34 109.2a77.09 77.09 0 0 1-15.697-1.629l-.406 1.958a79.016 79.016 0 0 0 16.103 1.671v-2Zm-15.697-1.629a86.33 86.33 0 0 1-15.125-4.597l-.756 1.852a88.418 88.418 0 0 0 15.475 4.703l.406-1.958Zm-15.109-4.59c-4.84-2.074-9.277-4.54-13.317-7.397l-1.155 1.632c4.161 2.943 8.723 5.477 13.684 7.603l.788-1.838Zm-13.004-6.125 9.15-17.85-1.78-.912-9.15 17.85 1.78.912Zm7.553-17.599c.978.979 2.653 2.226 4.961 3.73l1.092-1.675c-2.293-1.495-3.818-2.648-4.639-3.47l-1.414 1.415Zm4.987 3.747c2.344 1.427 5.181 2.895 8.506 4.406l.828-1.82c-3.275-1.49-6.038-2.92-8.294-4.294l-1.04 1.708Zm8.529 4.417c3.352 1.421 7 2.637 10.942 3.648l.497-1.938c-3.857-.989-7.409-2.173-10.658-3.552l-.781 1.842Zm10.942 3.648A48.538 48.538 0 0 0 536.64 92.6v-2c-3.916 0-7.782-.49-11.602-1.469l-.497 1.938ZM536.64 92.6c5.686 0 10.163-.96 13.298-3.013l-1.096-1.674c-2.665 1.747-6.688 2.687-12.202 2.687v2Zm13.298-3.013c3.185-2.088 4.802-5.104 4.802-8.937h-2c0 3.167-1.283 5.55-3.898 7.263l1.096 1.674Zm4.802-8.937c0-3.474-1.266-6.278-3.834-8.288l-1.232 1.576c2.032 1.59 3.066 3.786 3.066 6.712h2Zm-3.834-8.288c-2.427-1.9-5.749-3.495-9.914-4.815l-.604 1.906c4.035 1.28 7.113 2.784 9.286 4.484l1.232-1.575Zm-9.893-4.808c-4.12-1.407-8.987-2.912-14.598-4.516l-.55 1.924c5.589 1.596 10.422 3.091 14.502 4.484l.646-1.892Zm-14.6-4.516c-6.659-1.888-12.194-3.967-16.618-6.228l-.91 1.78c4.575 2.339 10.241 4.46 16.982 6.372l.546-1.924Zm-16.603-6.22c-4.375-2.334-7.578-5.22-9.667-8.64l-1.706 1.044c2.31 3.78 5.808 6.894 10.432 9.36l.941-1.764Zm-9.667-8.64c-2.081-3.404-3.153-7.711-3.153-12.978h-2c0 5.533 1.127 10.226 3.447 14.021l1.706-1.042ZM496.99 35.2c0-7.143 1.661-13.032 4.921-17.73l-1.643-1.14c-3.54 5.102-5.278 11.413-5.278 18.87h2Zm4.919-17.727c3.387-4.838 7.935-8.472 13.671-10.902l-.78-1.842c-6.064 2.57-10.916 6.436-14.529 11.598l1.638 1.146Zm13.684-10.908c5.759-2.538 12.169-3.815 19.247-3.815v-2c-7.323 0-14.012 1.323-20.053 3.985l.806 1.83ZM534.84 2.75c4.926 0 9.544.542 13.857 1.62l.485-1.94C544.695 1.308 539.913.75 534.84.75v2Zm13.862 1.621c4.443 1.086 8.582 2.516 12.419 4.287l.838-1.816c-3.963-1.829-8.224-3.3-12.782-4.413l-.475 1.942Zm12.419 4.287c3.857 1.78 7.309 3.705 10.358 5.77l1.122-1.656c-3.151-2.135-6.7-4.11-10.642-5.93l-.838 1.816Zm10.041 4.464-9.15 16.8 1.756.956 9.15-16.8-1.756-.956ZM599.892 2.5l.943-.332-.235-.668h-.708v1Zm28.8 81.9-.944.332.949 2.697.939-2.7-.944-.329Zm28.5-81.9v-1h-.711l-.234.671.945.329Zm21.75 0 .935.354.513-1.354h-1.448v1ZM638.592 109v1h.69l.245-.646-.935-.354Zm-19.95 0-.935.355.245.645h.69v-1Zm-40.5-106.5v-1h-1.45l.515 1.355.935-.355Zm20.806.332 28.8 81.9 1.887-.664-28.8-81.9-1.887.664Zm30.688 81.897 28.5-81.9-1.889-.658-28.5 81.9 1.889.658ZM657.192 3.5h21.75v-2h-21.75v2Zm20.815-1.354-40.35 106.5 1.87.708 40.35-106.5-1.87-.708ZM638.592 108h-19.95v2h19.95v-2Zm-19.016.645-40.5-106.5-1.869.71 40.5 106.5 1.869-.71ZM578.142 3.5h21.75v-2h-21.75v2ZM690.309 109h-1v1h1v-1Zm0-106.5v-1h-1v1h1Zm20.7 0h1v-1h-1v1Zm0 106.5v1h1v-1h-1Zm-19.7 0V2.5h-2V109h2Zm-1-105.5h20.7v-2h-20.7v2Zm19.7-1V109h2V2.5h-2Zm1 105.5h-20.7v2h20.7v-2Zm101.87-87.35v1h1v-1h-1Zm-34.05 0v-1h-1v1h1Zm0 88.35v1h1v-1h-1Zm-20.55 0h-1v1h1v-1Zm0-88.35h1v-1h-1v1Zm-34.05 0h-1v1h1v-1Zm0-18.15v-1h-1v1h1Zm88.65 0h1v-1h-1v1Zm0 17.15h-34.05v2h34.05v-2Zm-35.05 1V109h2V20.65h-2Zm1 87.35h-20.55v2h20.55v-2Zm-19.55 1V20.65h-2V109h2Zm-1-89.35h-34.05v2h34.05v-2Zm-33.05 1V2.5h-2v18.15h2Zm-1-17.15h88.65v-2h-88.65v2Zm87.65-1v18.15h2V2.5h-2Z" fill="#000"/></symbol><symbol fill="none" stroke="currentColor" viewBox="0 0 14 14" id="qwe" xmlns="http://www.w3.org/2000/svg"><path d="m3 5 4 4 4-4" stroke-width="2" stroke-linecap="round"/></symbol></svg>